<svg xmlns="http://www.w3.org/2000/svg" xmlns:xlink="http://www.w3.org/1999/xlink" width="375" zoomAndPan="magnify" viewBox="0 0 281.25 281.249989" height="375" preserveAspectRatio="xMidYMid meet" version="1.0"><defs><g/><clipPath id="6b694c9fc8"><path d="M 0 0 L 280.503906 0 L 280.503906 280.503906 L 0 280.503906 Z M 0 0 " clip-rule="nonzero"/></clipPath></defs><g clip-path="url(#6b694c9fc8)"><path fill="#000000" d="M 140.25 0 C 62.792969 0 0 62.792969 0 140.25 C 0 217.710938 62.792969 280.503906 140.25 280.503906 C 217.710938 280.503906 280.503906 217.710938 280.503906 140.25 C 280.503906 62.792969 217.710938 0 140.25 0 " fill-opacity="1" fill-rule="nonzero"/></g><g fill="#ffffff" fill-opacity="1"><g transform="translate(28.050203, 157.547297)"><g><path d="M 23.109375 0 L 4.140625 0 L 4.140625 -32.921875 L 23.109375 -32.921875 L 23.109375 -27.203125 L 11.125 -27.203125 L 11.125 -19.984375 L 22.28125 -19.984375 L 22.28125 -14.25 L 11.125 -14.25 L 11.125 -5.765625 L 23.109375 -5.765625 Z M 23.109375 0 "/></g></g><g transform="translate(53.882058, 157.547297)"><g><path d="M 18.078125 0 L 10.15625 -25.828125 L 9.953125 -25.828125 C 10.234375 -20.578125 10.375 -17.070312 10.375 -15.3125 L 10.375 0 L 4.140625 0 L 4.140625 -32.921875 L 13.640625 -32.921875 L 21.4375 -7.75 L 21.578125 -7.75 L 29.84375 -32.921875 L 39.34375 -32.921875 L 39.34375 0 L 32.84375 0 L 32.84375 -15.578125 C 32.84375 -16.316406 32.851562 -17.164062 32.875 -18.125 C 32.894531 -19.09375 32.992188 -21.644531 33.171875 -25.78125 L 32.96875 -25.78125 L 24.484375 0 Z M 18.078125 0 "/></g></g><g transform="translate(97.37056, 157.547297)"><g/></g><g transform="translate(109.351857, 157.547297)"><g><path d="M 4.140625 -32.921875 L 14.390625 -32.921875 C 19.054688 -32.921875 22.441406 -32.253906 24.546875 -30.921875 C 26.660156 -29.597656 27.71875 -27.488281 27.71875 -24.59375 C 27.71875 -22.625 27.253906 -21.007812 26.328125 -19.75 C 25.410156 -18.488281 24.1875 -17.734375 22.65625 -17.484375 L 22.65625 -17.25 C 24.738281 -16.78125 26.242188 -15.90625 27.171875 -14.625 C 28.097656 -13.351562 28.5625 -11.660156 28.5625 -9.546875 C 28.5625 -6.546875 27.472656 -4.203125 25.296875 -2.515625 C 23.128906 -0.835938 20.1875 0 16.46875 0 L 4.140625 0 Z M 11.125 -19.890625 L 15.1875 -19.890625 C 17.070312 -19.890625 18.4375 -20.179688 19.28125 -20.765625 C 20.132812 -21.347656 20.5625 -22.316406 20.5625 -23.671875 C 20.5625 -24.929688 20.097656 -25.832031 19.171875 -26.375 C 18.253906 -26.925781 16.796875 -27.203125 14.796875 -27.203125 L 11.125 -27.203125 Z M 11.125 -14.34375 L 11.125 -5.765625 L 15.671875 -5.765625 C 17.597656 -5.765625 19.019531 -6.128906 19.9375 -6.859375 C 20.851562 -7.597656 21.3125 -8.726562 21.3125 -10.25 C 21.3125 -12.976562 19.359375 -14.34375 15.453125 -14.34375 Z M 11.125 -14.34375 "/></g></g><g transform="translate(140.341075, 157.547297)"><g><path d="M 11.125 -18.3125 L 13.375 -18.3125 C 15.582031 -18.3125 17.210938 -18.675781 18.265625 -19.40625 C 19.316406 -20.144531 19.84375 -21.300781 19.84375 -22.875 C 19.84375 -24.4375 19.304688 -25.546875 18.234375 -26.203125 C 17.160156 -26.867188 15.5 -27.203125 13.25 -27.203125 L 11.125 -27.203125 Z M 11.125 -12.640625 L 11.125 0 L 4.140625 0 L 4.140625 -32.921875 L 13.734375 -32.921875 C 18.210938 -32.921875 21.523438 -32.109375 23.671875 -30.484375 C 25.816406 -28.859375 26.890625 -26.382812 26.890625 -23.0625 C 26.890625 -21.125 26.351562 -19.398438 25.28125 -17.890625 C 24.21875 -16.378906 22.710938 -15.195312 20.765625 -14.34375 C 25.722656 -6.945312 28.953125 -2.164062 30.453125 0 L 22.703125 0 L 14.84375 -12.640625 Z M 11.125 -12.640625 "/></g></g><g transform="translate(170.789783, 157.547297)"><g><path d="M 23.109375 0 L 4.140625 0 L 4.140625 -32.921875 L 23.109375 -32.921875 L 23.109375 -27.203125 L 11.125 -27.203125 L 11.125 -19.984375 L 22.28125 -19.984375 L 22.28125 -14.25 L 11.125 -14.25 L 11.125 -5.765625 L 23.109375 -5.765625 Z M 23.109375 0 "/></g></g><g transform="translate(196.621638, 157.547297)"><g><path d="M 22.921875 -32.921875 L 29.984375 -32.921875 L 18.78125 0 L 11.171875 0 L 0 -32.921875 L 7.046875 -32.921875 L 13.25 -13.328125 C 13.59375 -12.171875 13.945312 -10.820312 14.3125 -9.28125 C 14.675781 -7.75 14.90625 -6.679688 15 -6.078125 C 15.164062 -7.460938 15.726562 -9.878906 16.6875 -13.328125 Z M 22.921875 -32.921875 "/></g></g><g transform="translate(226.5974, 157.547297)"><g><path d="M 23.109375 0 L 4.140625 0 L 4.140625 -32.921875 L 23.109375 -32.921875 L 23.109375 -27.203125 L 11.125 -27.203125 L 11.125 -19.984375 L 22.28125 -19.984375 L 22.28125 -14.25 L 11.125 -14.25 L 11.125 -5.765625 L 23.109375 -5.765625 Z M 23.109375 0 "/></g></g></g></svg>