<svg xmlns="http://www.w3.org/2000/svg" xmlns:xlink="http://www.w3.org/1999/xlink" width="40" zoomAndPan="magnify" viewBox="0 0 30 30.000001" height="40" preserveAspectRatio="xMidYMid meet" version="1.0"><defs><clipPath id="86107f72f7"><path d="M 4.839844 4.355469 L 25.160156 4.355469 L 25.160156 24.675781 L 4.839844 24.675781 Z M 4.839844 4.355469 " clip-rule="nonzero"/></clipPath><clipPath id="4d944b13d8"><path d="M 2.445312 0 L 27.847656 0 L 27.847656 29 L 2.445312 29 Z M 2.445312 0 " clip-rule="nonzero"/></clipPath></defs><g clip-path="url(#86107f72f7)"><path fill="#ffffff" d="M 15 4.355469 C 9.386719 4.355469 4.839844 8.902344 4.839844 14.515625 C 4.839844 20.128906 9.386719 24.675781 15 24.675781 C 20.613281 24.675781 25.160156 20.128906 25.160156 14.515625 C 25.160156 8.902344 20.613281 4.355469 15 4.355469 " fill-opacity="1" fill-rule="nonzero"/></g><g clip-path="url(#4d944b13d8)"><path fill="#00ca8e" d="M 15.152344 0 L 2.445312 7.246094 L 2.445312 21.738281 L 15.144531 28.984375 L 27.847656 21.738281 L 27.847656 7.246094 Z M 20.820312 15.945312 L 17.4375 17.878906 L 13.347656 15.667969 L 13.347656 20.285156 L 9.503906 22.695312 L 9.503906 13.042969 L 12.558594 11.195312 L 16.785156 13.398438 L 16.785156 8.683594 L 20.820312 6.289062 Z M 20.820312 15.945312 " fill-opacity="1" fill-rule="nonzero"/></g></svg>