<svg xmlns="http://www.w3.org/2000/svg" xmlns:xlink="http://www.w3.org/1999/xlink" width="40" zoomAndPan="magnify" viewBox="0 0 30 30.000001" height="40" preserveAspectRatio="xMidYMid meet" version="1.0"><defs><filter x="0%" y="0%" width="100%" height="100%" id="cda9a1072c"><feColorMatrix values="0 0 0 0 1 0 0 0 0 1 0 0 0 0 1 0 0 0 1 0" color-interpolation-filters="sRGB"/></filter><clipPath id="924c6a2a60"><path d="M 2 0.898438 L 29.515625 0.898438 L 29.515625 27 L 2 27 Z M 2 0.898438 " clip-rule="nonzero"/></clipPath><mask id="37c66c1dd5"><g filter="url(#cda9a1072c)"><rect x="-3" width="36" fill="#000000" y="-3" height="36.000001" fill-opacity="0.498"/></g></mask><clipPath id="c2b2e6ff38"><path d="M 0.109375 0.898438 L 27.515625 0.898438 L 27.515625 26.710938 L 0.109375 26.710938 Z M 0.109375 0.898438 " clip-rule="nonzero"/></clipPath><clipPath id="1ee848905e"><rect x="0" width="28" y="0" height="27"/></clipPath><clipPath id="4400d355de"><path d="M 0.484375 12 L 18 12 L 18 28.476562 L 0.484375 28.476562 Z M 0.484375 12 " clip-rule="nonzero"/></clipPath><mask id="b913a291f0"><g filter="url(#cda9a1072c)"><rect x="-3" width="36" fill="#000000" y="-3" height="36.000001" fill-opacity="0.498"/></g></mask><clipPath id="990584ce72"><path d="M 0.484375 0.078125 L 17.671875 0.078125 L 17.671875 16.476562 L 0.484375 16.476562 Z M 0.484375 0.078125 " clip-rule="nonzero"/></clipPath><clipPath id="c1c72f1a57"><rect x="0" width="18" y="0" height="17"/></clipPath></defs><g clip-path="url(#924c6a2a60)"><g mask="url(#37c66c1dd5)"><g transform="matrix(1, 0, 0, 1, 2, 0.000000000000005773)"><g clip-path="url(#1ee848905e)"><g clip-path="url(#c2b2e6ff38)"><path fill="#7b2cbf" d="M 27.089844 1.082031 L 20.09375 26.195312 C 20.054688 26.308594 19.914062 26.34375 19.832031 26.265625 L 15.144531 21.761719 L 18.65625 9.175781 C 18.691406 9.0625 18.585938 8.960938 18.46875 8.996094 L 5.371094 12.367188 L 0.710938 7.886719 C 0.625 7.808594 0.660156 7.671875 0.78125 7.636719 L 26.902344 0.902344 C 27.019531 0.878906 27.125 0.980469 27.089844 1.082031 Z M 27.089844 1.082031 " fill-opacity="1" fill-rule="nonzero"/></g></g></g></g></g><g clip-path="url(#4400d355de)"><g mask="url(#b913a291f0)"><g transform="matrix(1, 0, 0, 1, 0, 12)"><g clip-path="url(#c1c72f1a57)"><g clip-path="url(#990584ce72)"><path fill="#7b2cbf" d="M 17.144531 9.761719 L 15.34375 16.257812 C 15.304688 16.375 15.164062 16.40625 15.082031 16.328125 L 0.539062 2.363281 C 0.453125 2.285156 0.492188 2.148438 0.609375 2.113281 L 7.371094 0.367188 Z M 17.144531 9.761719 " fill-opacity="1" fill-rule="nonzero"/></g></g></g></g></g><path fill="#7b2cbf" d="M 20.65625 9.175781 L 17.144531 21.761719 L 7.371094 12.367188 L 20.464844 8.992188 C 20.585938 8.960938 20.691406 9.0625 20.65625 9.175781 Z M 20.65625 9.175781 " fill-opacity="1" fill-rule="nonzero"/></svg>