<svg xmlns="http://www.w3.org/2000/svg" xmlns:xlink="http://www.w3.org/1999/xlink" width="500" zoomAndPan="magnify" viewBox="0 0 375 374.999991" height="500" preserveAspectRatio="xMidYMid meet" version="1.0"><path fill="#000000" d="M 187.5 0 C 83.945312 0 0 83.945312 0 187.5 C 0 291.054688 83.945312 375 187.5 375 C 291.054688 375 375 291.054688 375 187.5 C 375 83.945312 291.054688 0 187.5 0 " fill-opacity="1" fill-rule="nonzero"/><path fill="#f2f1f0" d="M 85.210938 163.855469 L 85.210938 154.601562 L 58.023438 154.601562 L 58.023438 247.292969 L 86.574219 247.292969 L 86.574219 194.867188 C 86.574219 184.585938 94.953125 179.789062 101.625 179.789062 C 107.949219 179.789062 113.417969 183.898438 113.417969 195.210938 L 113.417969 247.292969 L 140.601562 247.292969 L 140.601562 194.527344 C 140.773438 184.417969 150.347656 179.789062 157.019531 179.789062 C 163.34375 179.789062 168.8125 183.898438 168.8125 195.210938 L 168.8125 247.292969 L 195.996094 247.292969 L 195.996094 195.039062 C 196.339844 164.714844 181.296875 153.402344 163 153.402344 C 152.574219 153.402344 140.261719 157.34375 134.277344 165.570312 C 129.832031 158.375 122.820312 153.234375 111.710938 153.234375 C 101.964844 153.234375 91.539062 155.804688 85.210938 163.855469 Z M 85.210938 163.855469 " fill-opacity="1" fill-rule="nonzero"/><path fill="#f2f1f0" d="M 241.292969 153.0625 C 211.203125 153.0625 196.496094 174.308594 196.496094 199.667969 C 196.496094 225.195312 211.714844 248.492188 240.949219 248.492188 C 249.839844 248.492188 258.902344 245.921875 265.226562 238.046875 L 265.226562 247.292969 L 292.070312 247.292969 L 292.070312 126.507812 L 265.226562 126.507812 L 265.226562 163 C 259.074219 155.972656 250.355469 153.0625 241.292969 153.0625 Z M 244.199219 222.625 C 230.523438 222.625 223.511719 211.484375 223.511719 200.351562 C 223.511719 189.039062 230.351562 177.90625 244.199219 177.90625 C 255.824219 177.90625 265.226562 188.015625 265.226562 200.351562 C 265.226562 212.683594 255.824219 222.625 244.199219 222.625 Z M 244.199219 222.625 " fill-opacity="1" fill-rule="nonzero"/><path fill="#f2f1f0" d="M 320.441406 160.773438 L 319.417969 154.601562 L 295.140625 154.601562 L 295.140625 247.292969 L 321.984375 247.292969 L 321.984375 195.898438 C 321.984375 183.386719 331.898438 178.246094 341.644531 178.078125 C 344.722656 178.078125 347.96875 178.59375 350.707031 179.445312 L 351.046875 154.089844 C 347.457031 153.234375 343.863281 152.71875 340.617188 152.71875 C 333.09375 152.71875 326.429688 155.121094 320.441406 160.773438 Z M 320.441406 160.773438 " fill-opacity="1" fill-rule="nonzero"/><path fill="#e62e4d" d="M 39.136719 214.933594 C 30.316406 214.933594 23.253906 221.300781 23.253906 230.671875 C 23.253906 238.453125 30.316406 246.410156 39.136719 246.410156 C 48.667969 246.410156 55.550781 238.453125 55.550781 230.671875 C 55.550781 221.300781 48.667969 214.933594 39.136719 214.933594 Z M 39.136719 214.933594 " fill-opacity="1" fill-rule="nonzero"/></svg>